<?xml version="1.0" encoding="UTF-8" standalone="no"?>
<svg
   xmlns:dc="http://purl.org/dc/elements/1.1/"
   xmlns:cc="http://creativecommons.org/ns#"
   xmlns:rdf="http://www.w3.org/1999/02/22-rdf-syntax-ns#"
   xmlns:svg="http://www.w3.org/2000/svg"
   xmlns="http://www.w3.org/2000/svg"
   xmlns:xlink="http://www.w3.org/1999/xlink"
   xmlns:sodipodi="http://sodipodi.sourceforge.net/DTD/sodipodi-0.dtd"
   xmlns:inkscape="http://www.inkscape.org/namespaces/inkscape"
   viewBox="-147 -68 300 340"
   id="svg2"
   version="1.1"
   inkscape:version="0.48.3.1 r9886"
   width="100%"
   height="100%"
   sodipodi:docname="dolidroid.svg"
   inkscape:export-filename="/home/ldestailleur/git/androidapp/img/dolidroid.png"
   inkscape:export-xdpi="90"
   inkscape:export-ydpi="90">
  <metadata
     id="metadata33">
    <rdf:RDF>
      <cc:Work
         rdf:about="">
        <dc:format>image/svg+xml</dc:format>
        <dc:type
           rdf:resource="http://purl.org/dc/dcmitype/StillImage" />
        <dc:title></dc:title>
      </cc:Work>
    </rdf:RDF>
  </metadata>
  <defs
     id="defs31">
    <linearGradient
       id="linearGradient3865">
      <stop
         style="stop-color:#4b93d6;stop-opacity:1;"
         offset="0"
         id="stop3867" />
      <stop
         id="stop3877"
         offset="1"
         style="stop-color:#1b4b76;stop-opacity:1;" />
    </linearGradient>
    <linearGradient
       id="linearGradient3857">
      <stop
         style="stop-color:#736003;stop-opacity:1;"
         offset="0"
         id="stop3859" />
      <stop
         style="stop-color:#4479aa;stop-opacity:0"
         offset="1"
         id="stop3861" />
    </linearGradient>
    <linearGradient
       inkscape:collect="always"
       xlink:href="#linearGradient3865"
       id="linearGradient3871"
       x1="67.314468"
       y1="128.72421"
       x2="223.01129"
       y2="287.50412"
       gradientUnits="userSpaceOnUse"
       gradientTransform="matrix(0.99152531,0,0,0.95882352,-142.00278,-59.871919)" />
  </defs>
  <sodipodi:namedview
     pagecolor="#ffffff"
     bordercolor="#666666"
     borderopacity="1"
     objecttolerance="10"
     gridtolerance="10"
     guidetolerance="10"
     inkscape:pageopacity="0"
     inkscape:pageshadow="2"
     inkscape:window-width="1920"
     inkscape:window-height="1027"
     id="namedview29"
     showgrid="false"
     inkscape:zoom="1.9460898"
     inkscape:cx="140.7189"
     inkscape:cy="160.65114"
     inkscape:window-x="0"
     inkscape:window-y="0"
     inkscape:window-maximized="1"
     inkscape:current-layer="svg2" />
  <g
     id="use6"
     style="fill:#a4c639;stroke:#ffffff;stroke-width:14.39999962"
     transform="matrix(1.2071324,0,0,1.1424329,4.2569249,10.139212)">
    <ellipse
       style="fill:#a4c639"
       cy="41"
       rx="91"
       ry="84"
       id="ellipse3021"
       cx="0"
       sodipodi:cx="0"
       sodipodi:cy="41"
       sodipodi:rx="91"
       sodipodi:ry="84"
       d="m 91,41 c 0,46.391919 -40.742088,84 -91,84 -50.257912,0 -91,-37.608081 -91,-84 0,-46.391919 40.742088,-84 91,-84 50.257912,0 91,37.608081 91,84 z" />
    <rect
       style="fill:#a4c639"
       rx="22"
       height="182"
       width="182"
       y="20"
       x="-91"
       id="rect3023" />
  </g>
  <rect
     id="rect3040"
     x="10.091889"
     y="-86.862511"
     width="14.869863"
     height="84.824844"
     transform="matrix(-0.92301879,0.38475487,0.59333706,0.80495412,0,0)"
     rx="7.4349313"
     style="fill:#a4c639;stroke:#ffffff;stroke-width:7.64762497" />
  <use
     height="343"
     width="294"
     id="use3044"
     xlink:href="#c"
     x="85"
     y="97"
     style="fill:#a4c639;stroke:#ffffff;stroke-width:7.19999981"
     transform="matrix(-1,0,0,0.47221209,4.5138498,140.57204)" />
  <rect
     style="fill:#a4c639;stroke:#ffffff;stroke-width:7.64762497"
     rx="7.4349313"
     transform="matrix(0.92301879,0.38475487,-0.59333706,0.80495412,0,0)"
     height="84.824844"
     width="14.869863"
     y="-90.235123"
     x="17.147814"
     id="rect11" />
  <rect
     style="fill:#a4c639;stroke:#ffffff;stroke-width:5.54694271"
     id="c"
     rx="14.322619"
     height="132.27652"
     width="28.645239"
     y="44.950008"
     x="-143.0659" />
  <use
     style="fill:#a4c639;stroke:#ffffff;stroke-width:7.19999981"
     y="97"
     x="85"
     xlink:href="#c"
     id="use14"
     width="294"
     height="343"
     transform="matrix(1,0,0,0.63507579,4,94.967099)" />
  <ellipse
     style="fill:#a4c639"
     cy="41"
     rx="91"
     ry="84"
     id="ellipse17"
     cx="0"
     sodipodi:cx="0"
     sodipodi:cy="41"
     sodipodi:rx="91"
     sodipodi:ry="84"
     transform="matrix(1.2071324,0,0,1.1424329,4.2569249,10.139212)" />
  <rect
     style="fill:#a4c639"
     rx="26.556911"
     height="207.92279"
     width="219.69809"
     y="32.987869"
     x="-105.59212"
     id="rect19" />
  <g
     id="g21"
     transform="matrix(1.2071324,0,0,0.90777142,4.2569249,-5.9186646)"
     style="fill:#ffffff;stroke:#ffffff;stroke-width:7.19999981">
    <path
       d="M -95,44.5 H 95"
       id="path23"
       inkscape:connector-curvature="0" />
    <circle
       cx="-42"
       r="4"
       id="circle25"
       d="m -38,0 c 0,2.209139 -1.790861,4 -4,4 -2.209139,0 -4,-1.790861 -4,-4 0,-2.209139 1.790861,-4 4,-4 2.209139,0 4,1.790861 4,4 z"
       cy="0"
       sodipodi:cx="-42"
       sodipodi:cy="0"
       sodipodi:rx="4"
       sodipodi:ry="4" />
    <circle
       cx="42"
       r="4"
       id="circle27"
       d="m 46,0 c 0,2.209139 -1.790861,4 -4,4 -2.209139,0 -4,-1.790861 -4,-4 0,-2.209139 1.790861,-4 4,-4 2.209139,0 4,1.790861 4,4 z"
       cy="0"
       sodipodi:cx="42"
       sodipodi:cy="0"
       sodipodi:rx="4"
       sodipodi:ry="4" />
  </g>
  <rect
     style="fill:url(#linearGradient3871);fill-opacity:1;stroke:none"
     id="rect3074"
     width="180.36166"
     height="167.5154"
     x="-85.448708"
     y="55.668777"
     rx="11.764445" />
  <text
     xml:space="preserve"
     style="font-size:175.77445984px;font-style:normal;font-weight:normal;line-height:125%;letter-spacing:0px;word-spacing:0px;fill:#000000;fill-opacity:1;stroke:none;font-family:Sans"
     x="-61.754402"
     y="197.81151"
     id="text3873"
     sodipodi:linespacing="125%"
     transform="scale(0.99196321,1.0081019)"><tspan
       sodipodi:role="line"
       id="tspan3875"
       x="-61.754402"
       y="197.81151"
       style="font-style:normal;font-variant:normal;font-weight:bold;font-stretch:normal;fill:#ffffff;fill-opacity:1;font-family:Bauhaus 93;-inkscape-font-specification:Bauhaus 93 Bold">D</tspan></text>
  <rect
     style="fill:#a4c639;stroke:#ffffff;stroke-width:5.54694271"
     id="c-0"
     rx="14.322619"
     height="132.27652"
     width="28.645239"
     y="44.950008"
     x="121.18457" />
</svg>
